<svg
    xmlns="http://www.w3.org/2000/svg"
    viewBox="0 0 512 512"
    width="512"
    height="512"
>

    <style>
    path { fill: #000; }
    @media (prefers-color-scheme: dark) {
      path { fill: #fff; }
    }
    </style>

        <path
        d="M131.341727,460.982014Q121.953237,460.982014 116.476619,455.505396 Q111,450.028777 111,440.640288 Q111,194.453237 111,194.453237 Q111.521583,153.769784 130.559353,121.170863 Q149.597122,88.571942 182.196043,69.794964 Q214.794964,51.017986 255.478417,51.017986 Q297.205036,51.017986 330.064748,70.055755 Q362.92446,89.093525 381.96223,121.953237 Q401,154.81295 401,196.539568 Q401,237.744604 382.483813,270.604317 Q363.967626,303.464029 332.151079,322.501799 Q300.334532,341.539568 260.172662,341.539568 Q225.226619,341.539568 196.80036,326.67446 Q168.374101,311.809353 151.161871,287.294964 Q151.161871,440.640288 151.161871,440.640288 Q151.161871,450.028777 145.685252,455.505396 Q140.208633,460.982014 131.341727,460.982014 Q131.341727,460.982014 131.341727,460.982014 ZM255.478417,305.028777Q285.730216,305.028777 309.723022,290.946043 Q333.715827,276.863309 347.53777,252.088129 Q361.359712,227.31295 361.359712,196.539568 Q361.359712,165.244604 347.53777,140.730216 Q333.715827,116.215827 309.723022,101.872302 Q285.730216,87.528777 255.478417,87.528777 Q225.748201,87.528777 201.755396,101.872302 Q177.76259,116.215827 164.201439,140.730216 Q150.640288,165.244604 150.640288,196.539568 Q150.640288,227.31295 164.201439,252.088129 Q177.76259,276.863309 201.755396,290.946043 Q225.748201,305.028777 255.478417,305.028777 Q255.478417,305.028777 255.478417,305.028777 Z"
    />

        <path
        d="M210.404676,460.982014C210.404676,460.982014 341.898764,460.982014 341.898764,460.982014 C352.979118,460.982014 361.979699,451.981434 361.979699,440.901079 C361.979699,429.820725 352.979118,420.820144 341.898764,420.820144 C341.898764,420.820144 210.404676,420.820144 210.404676,420.820144 C199.324322,420.820144 190.323741,429.820725 190.323741,440.901079 C190.323741,451.981434 199.324322,460.982014 210.404676,460.982014 L 210.404676,460.982014 Z"
    />

        <path
        d="M210.404676,460.982014C210.404676,460.982014 341.898764,460.982014 341.898764,460.982014 C352.979118,460.982014 361.979699,451.981434 361.979699,440.901079 C361.979699,429.820725 352.979118,420.820144 341.898764,420.820144 C341.898764,420.820144 210.404676,420.820144 210.404676,420.820144 C199.324322,420.820144 190.323741,429.820725 190.323741,440.901079 C190.323741,451.981434 199.324322,460.982014 210.404676,460.982014 L 210.404676,460.982014 Z"
    />
    </svg>
